# xmcd
#
# Track frame offsets: 
#        150
#        25135
#        47474
#        64803
#        89371
#        109244
#        123408
#        139580
#        160639
#        182956
#        215857
#
# Disc length: 4453 seconds
#
# Revision: 0
# Processed by: cddbd v1.5.2PL0 Copyright (c) Steve Scherf et al.
# Submitted via: ExactAudioCopy v0.99pb5
#
DISCID=9911630b
DTITLE=Ró¿ni wykonawcy - Piekarskie Wieczory Bluesowe vol.2 CD1
DYEAR=2007
DGENRE=Blues
TTITLE0=01.White - Crazy Believer
TTITLE1=02.Apostolis Anthimos - Bar Wah Wah
TTITLE2=03.Brian Mc Combe - Gaelic An Dro
TTITLE3=04.Krzak - Przewrotna Samba - Crazy samba
TTITLE4=05.Siona Neale - Let's Be Clear
TTITLE5=06.Mofo Party Band - El Paso Boogaloo
TTITLE6=07.L.A.P.D. feat.Liam Mc Murray -  The Way You Move
TTITLE7=08.Cree - Swe drugie ja
TTITLE8=09.Rob Tognoni - Silver Machine
TTITLE9=10.Osada Vida - The Decision
TTITLE10=11.Bonus Track CD ROOM Video
EXTD=
EXTT0=
EXTT1=
EXTT2=
EXTT3=
EXTT4=
EXTT5=
EXTT6=
EXTT7=
EXTT8=
EXTT9=
EXTT10=
PLAYORDER=
